<svg width="260" height="96" viewBox="0 0 260 96" fill="none" xmlns="http://www.w3.org/2000/svg">
  <rect width="260" height="96" rx="20" fill="url(#bg)" fill-opacity="0"/>
  <g filter="url(#glow)">
    <path d="M74 16L52 34V76H68V32H78V76H96V8H86L74 16Z" fill="#F5F7FF"/>
    <path d="M108 28L96 40V76H112V50H122V76H140V22L128 12L108 28Z" fill="#F5F7FF"/>
    <path d="M152 24L140 36V76H156V46H166V76H184V32L164 18L152 24Z" fill="#F5F7FF"/>
    <rect x="44" y="82" width="148" height="3" rx="1.5" fill="url(#line)"/>
  </g>
  <text x="16" y="55" fill="#F5F7FF" font-family="Orbitron, 'Segoe UI', sans-serif" font-size="14" font-weight="700" letter-spacing="1.8">КОНСОЛЬГРАД</text>
  <text x="16" y="74" fill="#B0BDDB" font-family="'Exo 2', 'Segoe UI', sans-serif" font-size="11" font-weight="600">игровые зоны под ключ</text>
  <defs>
    <linearGradient id="line" x1="44" y1="83.5" x2="192" y2="83.5" gradientUnits="userSpaceOnUse">
      <stop stop-color="#FFE253"/>
      <stop offset="1" stop-color="#57C6FF"/>
    </linearGradient>
    <linearGradient id="bg" x1="0" y1="0" x2="260" y2="96" gradientUnits="userSpaceOnUse">
      <stop stop-color="#0B1022"/>
      <stop offset="1" stop-color="#101A39"/>
    </linearGradient>
    <filter id="glow" x="39" y="3" width="150" height="87" filterUnits="userSpaceOnUse" color-interpolation-filters="sRGB">
      <feFlood flood-opacity="0" result="BackgroundImageFix"/>
      <feBlend mode="normal" in="SourceGraphic" in2="BackgroundImageFix" result="shape"/>
      <feGaussianBlur stdDeviation="1.5" result="effect1_foregroundBlur_1_2"/>
    </filter>
  </defs>
</svg>
